<svg width="900" height="420" viewBox="0 0 900 420" xmlns="http://www.w3.org/2000/svg">
  <!-- Background -->
  <rect x="10" y="10" rx="24" ry="24" width="880" height="400"
        fill="#fafafa" stroke="#2f2f2f" stroke-width="6"/>

  <!-- Notebook lines -->
  <line x1="10" y1="80" x2="890" y2="80" stroke="#bcd4ea" stroke-width="4"/>
  <line x1="10" y1="130" x2="890" y2="130" stroke="#bcd4ea" stroke-width="3"/>
  <line x1="10" y1="180" x2="890" y2="180" stroke="#bcd4ea" stroke-width="3"/>
  <line x1="10" y1="230" x2="890" y2="230" stroke="#bcd4ea" stroke-width="3"/>

  <!-- Red margin -->
  <line x1="90" y1="10" x2="90" y2="410" stroke="#e67c73" stroke-width="6"/>

  <!-- Binder holes -->
  <circle cx="40" cy="90" r="10" fill="none" stroke="#2f2f2f" stroke-width="4"/>
  <circle cx="40" cy="190" r="10" fill="none" stroke="#2f2f2f" stroke-width="4"/>
  <circle cx="40" cy="290" r="10" fill="none" stroke="#2f2f2f" stroke-width="4"/>

  <!-- Title -->
  <text x="130" y="110"
        font-family="Arial Rounded MT Bold, Arial, sans-serif"
        font-size="72"
        fill="#2f2f2f">
    codeBuddy
  </text>

  <!-- Python badge -->
  <rect x="130" y="145" rx="10" ry="10" width="110" height="55"
        fill="#2f2f2f"/>
  <text x="155" y="185"
        font-family="Arial Rounded MT Bold, Arial, sans-serif"
        font-size="32"
        fill="#ffffff">
    python
  </text>

  <!-- Subtitle -->
  <text x="130" y="245"
        font-family="Arial, sans-serif"
        font-size="26"
        fill="#2f2f2f">
    computational thinking
  </text>

  <text x="130" y="285"
        font-family="Arial, sans-serif"
        font-size="26"
        fill="#2f2f2f">
    problem solving • code
  </text>

  <!-- Laptop -->
  <rect x="540" y="160" width="280" height="160" rx="10"
        fill="#f2f2f2" stroke="#2f2f2f" stroke-width="6"/>

  <text x="630" y="255"
        font-family="Courier New, monospace"
        font-size="64"
        fill="#2f2f2f">
    &lt;/&gt;
  </text>

  <rect x="560" y="320" width="240" height="30" rx="8"
        fill="#d6d6d6" stroke="#2f2f2f" stroke-width="4"/>
</svg>